<?xml version="1.0" encoding="UTF-8" standalone="no"?>
<!-- Created with Inkscape (http://www.inkscape.org/) -->

<svg
   width="25.129328mm"
   height="24.412695mm"
   viewBox="0 0 25.129328 24.412695"
   version="1.1"
   id="svg5"
   inkscape:version="1.1.1 (3bf5ae0d25, 2021-09-20)"
   sodipodi:docname="cart.svg"
   xmlns:inkscape="http://www.inkscape.org/namespaces/inkscape"
   xmlns:sodipodi="http://sodipodi.sourceforge.net/DTD/sodipodi-0.dtd"
   xmlns="http://www.w3.org/2000/svg"
   xmlns:svg="http://www.w3.org/2000/svg">
  <sodipodi:namedview
     id="namedview7"
     pagecolor="#ffffff"
     bordercolor="#999999"
     borderopacity="1"
     inkscape:pageshadow="0"
     inkscape:pageopacity="0"
     inkscape:pagecheckerboard="0"
     inkscape:document-units="mm"
     showgrid="false"
     fit-margin-top="0"
     fit-margin-left="0"
     fit-margin-right="0"
     fit-margin-bottom="0"
     inkscape:zoom="4"
     inkscape:cx="38.125"
     inkscape:cy="60.875"
     inkscape:window-width="1920"
     inkscape:window-height="991"
     inkscape:window-x="-9"
     inkscape:window-y="-9"
     inkscape:window-maximized="1"
     inkscape:current-layer="layer1" />
  <defs
     id="defs2" />
  <g
     inkscape:label="Layer 1"
     inkscape:groupmode="layer"
     id="layer1"
     transform="translate(-119.85737,-135.36611)">
    <path
       style="fill:#000000;stroke-width:0.0211667"
       d="m 127.98848,159.75239 c -0.37963,-0.0726 -0.68918,-0.21116 -0.96258,-0.43079 -0.6299,-0.50599 -0.91449,-1.2951 -0.75005,-2.07972 0.21748,-1.03772 1.20362,-1.75772 2.25909,-1.64941 0.91681,0.0941 1.65639,0.75781 1.84799,1.65844 0.12407,0.58322 -0.0146,1.20609 -0.37498,1.68478 -0.29121,0.38676 -0.6921,0.65513 -1.15862,0.77561 -0.25249,0.0652 -0.6385,0.0836 -0.86085,0.0411 z m 11.94414,-0.004 c -0.43409,-0.0785 -0.8078,-0.2723 -1.11816,-0.57992 -0.62899,-0.62343 -0.80121,-1.56594 -0.43212,-2.36479 0.37634,-0.81454 1.22635,-1.30206 2.11177,-1.2112 0.91414,0.0938 1.64151,0.7386 1.8487,1.63882 0.0601,0.26127 0.052,0.69956 -0.018,0.96333 -0.10557,0.39821 -0.27815,0.69341 -0.57529,0.98401 -0.11835,0.11575 -0.26286,0.23113 -0.36827,0.29405 -0.43801,0.26144 -0.9688,0.36246 -1.44865,0.2757 z m -10.75774,-4.99631 c -1.17115,-0.0927 -1.93093,-0.51243 -2.28784,-1.26399 -0.32427,-0.68283 -0.24318,-1.51248 0.24992,-2.55662 l 0.12624,-0.26732 -0.25475,-0.85451 c -0.14011,-0.46998 -0.4546,-1.52602 -0.69886,-2.34675 -0.24425,-0.82074 -0.75034,-2.52095 -1.12463,-3.77825 -0.37429,-1.2573 -0.88035,-2.95752 -1.12458,-3.77825 -0.24424,-0.82074 -0.5072,-1.70418 -0.58436,-1.96321 l -0.1403,-0.47096 -1.25026,-3.7e-4 c -0.99139,-2.9e-4 -1.27927,-0.007 -1.39042,-0.0301 -0.54228,-0.11494 -0.90923,-0.63606 -0.82587,-1.17283 0.0635,-0.40871 0.3401,-0.73257 0.73066,-0.8554 l 0.15071,-0.0474 h 1.75683 c 1.91289,0 1.83984,-0.004 2.09479,0.1224 0.15027,0.0747 0.35863,0.27802 0.43846,0.42793 0.031,0.0582 0.25289,0.76782 0.4931,1.57692 0.24021,0.80909 0.44066,1.48292 0.44544,1.49739 0.007,0.0209 1.8754,0.0274 9.09521,0.0317 l 9.08651,0.005 0.14309,0.0573 c 0.31227,0.12514 0.5069,0.32336 0.62955,0.64116 0.10026,0.25977 0.0956,0.29442 -0.34492,2.56117 -0.21719,1.1176 -0.62321,3.21707 -0.90226,4.66549 -0.56167,2.9153 -0.52814,2.77939 -0.74386,3.01541 -0.12699,0.13896 -0.26278,0.22844 -0.4326,0.28508 -0.12671,0.0423 -0.45046,0.0833 -4.78367,0.60633 -0.91969,0.11101 -1.90553,0.2303 -2.19075,0.26508 -0.28522,0.0348 -1.81874,0.22036 -3.40783,0.41238 -1.58909,0.19202 -3.05769,0.36976 -3.26356,0.39498 l -0.37431,0.0459 -0.0541,0.17119 c -0.10897,0.34506 -0.10969,0.57701 -0.002,0.68927 0.12668,0.13222 0.43291,0.2226 0.85774,0.25315 0.184,0.0132 0.35192,0.008 0.68792,-0.0218 4.96479,-0.43884 9.20843,-0.68153 11.32417,-0.64763 0.44959,0.007 0.80973,0.0223 0.87841,0.0369 0.65231,0.13822 0.89087,0.92635 0.42226,1.39496 -0.0565,0.0565 -0.15797,0.12985 -0.22546,0.16297 l -0.12271,0.0602 -0.68792,-0.006 c -1.35838,-0.0111 -3.36579,0.0607 -5.49275,0.19639 -1.75046,0.11169 -4.04682,0.28652 -5.588,0.42543 -0.57804,0.0521 -1.09897,0.0753 -1.31233,0.0584 z m 1.29731,-5.13093 c 0.68348,-0.0819 1.26412,-0.15352 1.29031,-0.15915 l 0.0476,-0.0102 v -1.97868 -1.97868 h -1.93675 c -1.75036,0 -1.93675,0.003 -1.93675,0.0334 0,0.0289 0.37226,1.29017 1.06031,3.5925 0.10369,0.34696 0.18852,0.63509 0.18852,0.64029 0,0.0149 -0.0184,0.017 1.28673,-0.13944 z m 4.53147,-0.5496 c 1.15371,-0.1397 2.10253,-0.254 2.10848,-0.254 0.006,0 0.0108,-0.74775 0.0108,-1.66168 v -1.66168 l -2.15371,0.005 -2.15371,0.005 -0.005,1.91029 -0.005,1.91029 h 0.0506 c 0.0279,0 0.99458,-0.1143 2.1483,-0.254 z m 4.71957,-0.57042 c 0.85388,-0.10375 1.55509,-0.19168 1.55823,-0.1954 0.006,-0.007 0.5405,-2.77485 0.5405,-2.79841 0,-0.007 -0.83106,-0.0107 -1.84679,-0.008 l -1.84679,0.005 -0.005,1.59279 c -0.004,1.26745 1e-5,1.59271 0.0212,1.5924 0.0146,-2.2e-4 0.72522,-0.0853 1.57911,-0.18903 z m -7.9131,-5.69491 v -1.69333 h -2.59539 -2.59538 l 0.01,0.0476 c 0.008,0.0392 0.75718,2.56183 0.9395,3.16442 l 0.0528,0.17462 h 2.09422 2.09422 z m 5.31283,-1.1e-4 v -1.69344 l -2.15371,0.005 -2.15371,0.005 -0.005,1.68804 -0.005,1.68804 h 2.15912 2.15913 v -1.69343 z m 5.22095,0.0107 c 0.17723,-0.91969 0.31513,-1.67935 0.30645,-1.68814 -0.009,-0.009 -1.02969,-0.0135 -2.26889,-0.0106 l -2.25309,0.005 -0.005,1.68815 -0.005,1.68815 1.95207,-0.005 1.95206,-0.005 z"
       id="path75" />
  </g>
</svg>
