<?xml version="1.0" encoding="UTF-8" standalone="no"?>
<!-- Created with Inkscape (http://www.inkscape.org/) -->

<svg
   width="52.899555mm"
   height="17.46434mm"
   viewBox="0 0 60.835213 20.889309"
   version="1.1"
   id="svg5"
   inkscape:version="1.1.1 (3bf5ae0d25, 2021-09-20)"
   sodipodi:docname="Logo.svg"
   xmlns:inkscape="http://www.inkscape.org/namespaces/inkscape"
   xmlns:sodipodi="http://sodipodi.sourceforge.net/DTD/sodipodi-0.dtd"
   xmlns="http://www.w3.org/2000/svg"
   xmlns:svg="http://www.w3.org/2000/svg">
  <sodipodi:namedview
     id="namedview7"
     pagecolor="#ffffff"
     bordercolor="#999999"
     borderopacity="1"
     inkscape:pageshadow="0"
     inkscape:pageopacity="0"
     inkscape:pagecheckerboard="0"
     inkscape:document-units="mm"
     showgrid="false"
     fit-margin-top="0"
     fit-margin-left="0"
     fit-margin-right="0"
     fit-margin-bottom="0"
     inkscape:zoom="5.6568542"
     inkscape:cx="125.59984"
     inkscape:cy="35.532116"
     inkscape:window-width="1920"
     inkscape:window-height="991"
     inkscape:window-x="-9"
     inkscape:window-y="-9"
     inkscape:window-maximized="1"
     inkscape:current-layer="layer1"
     viewbox-width="62.8738"
     viewbox-height="21.58931"
     scale-x="1.15733" />
  <defs
     id="defs2">
    <inkscape:path-effect
       effect="skeletal"
       id="path-effect110"
       is_visible="true"
       lpeversion="1"
       pattern="M 0,5.7410273 C 0,2.5719802 2.5719802,0 5.7410273,0 c 3.1690471,0 5.7410277,2.5719802 5.7410277,5.7410273 0,3.1690471 -2.5719806,5.7410277 -5.7410277,5.7410277 C 2.5719802,11.482055 0,8.9100744 0,5.7410273 Z"
       copytype="single_stretched"
       prop_scale="1"
       scale_y_rel="false"
       spacing="0"
       normal_offset="0"
       tang_offset="0"
       prop_units="false"
       vertical_pattern="false"
       hide_knot="false"
       fuse_tolerance="0" />
  </defs>
  <g
     inkscape:label="Layer 1"
     inkscape:groupmode="layer"
     id="layer1"
     transform="translate(-100.29504,-94.292782)">
    <path
       style="fill:#000000;stroke-width:0.299188"
       d="m 99.656514,114.804 c -0.819281,-0.53792 -0.82943,-0.98655 -0.02629,-1.16233 0.331972,-0.0727 0.404536,0.0459 0.238418,0.38956 -0.320658,0.66334 1.096148,0.99291 1.926048,0.44802 0.5201,-0.34149 0.48988,-0.42301 -0.31809,-0.85824 -1.21837,-0.65625 -0.59429,-1.395 1.085,-1.28437 1.07891,0.0711 1.15853,0.0188 1.38451,-0.90911 0.52232,-0.98453 0.36692,-0.98453 0.52232,-0.98453 0.39372,0 0.36736,0.003 0.73582,1.41381 0.008,1.08222 -0.0285,1.07233 0.95443,1.57386 0.58384,0.17128 0.58125,0.16739 -0.0924,0.52445 -0.41179,0.19769 -0.39516,0.21802 -0.20085,0.4587 0.51193,0.19131 1.70403,-0.94415 1.72125,-1.64024 0.007,-0.29056 0.29802,-0.54022 0.68735,-0.59003 0.48192,-0.0617 0.64511,0.041 0.57074,0.35931 -0.10591,0.45352 0.753,1.5366 1.21868,1.5366 0.14074,0 0.30846,-0.2916 0.37273,-0.64799 0.0642,-0.35639 0.30992,-0.68957 0.54592,-0.74039 0.29957,-0.0645 0.36848,0.20427 0.2283,0.89042 -0.11596,0.56793 -0.0486,0.98282 0.15985,0.98282 0.67763,0 1.73362,-0.99513 1.75053,-1.64962 0.0125,-0.48801 0.20373,-0.65347 0.75485,-0.65347 0.40625,0 0.7416,0.16347 0.74604,0.36364 0.0126,0.59333 0.57023,1.45459 0.94088,1.45459 0.1894,0 0.34436,-0.55264 0.34436,-1.22809 0,-1.36277 0.48402,-2.16594 1.30531,-2.16594 0.63768,0 0.72972,1.09686 0.17274,2.05873 -0.27371,0.47268 -0.25762,0.59088 0.0628,0.46088 0.45387,-0.18417 0.3845,-0.0201 -0.49687,1.17557 -0.53673,0.72807 -1.04392,0.87622 -1.04392,0.30493 0,-0.47184 -0.334,-0.45973 -1.17967,0.0428 -0.54467,0.32364 -0.77617,0.345 -1.13677,0.10488 -0.35827,-0.23855 -0.31019,-0.37066 0.23032,-0.6327 0.37572,-0.18216 0.56771,-0.4538 0.42666,-0.60365 -0.1622,-0.17234 -0.70362,0.0667 -1.47321,0.65055 -1.1913,0.90371 -1.23238,0.91375 -1.96468,0.47974 -0.69055,-0.40926 -0.81636,-0.41385 -1.63943,-0.0597 -0.91559,0.3939 -1.38637,0.30402 -1.38637,-0.26466 0,-0.17779 0.24924,-0.32325 0.55385,-0.32325 0.61218,0 0.74738,-0.37771 0.21285,-0.59461 -0.18754,-0.0761 -0.69733,0.19019 -1.13283,0.59176 -0.8764,0.8081 -1.5249,0.91523 -2.21851,0.3665 -0.63364,-0.50129 -1.79116,-0.45538 -2.52545,0.10015 -0.98717,0.74685 -2.12688,0.84534 -3.01724,0.26075 z m 3.449096,-1.55298 c 0.18462,-0.31589 -0.43957,-0.62615 -1.25971,-0.62615 -0.50915,0 -0.40792,0.66865 0.12254,0.80917 0.76375,0.20234 0.92734,0.17602 1.13718,-0.18302 z m 1.39667,-0.69585 c -0.30155,-0.19798 -0.41077,-0.17085 -0.41077,0.10203 0,0.48191 0.49652,0.80791 0.68,0.44647 0.0779,-0.15333 -0.0433,-0.40015 -0.26923,-0.5485 z m 12.63844,-0.60903 c 0.14502,-0.49983 0.0956,-0.74459 -0.1316,-0.65237 -0.20002,0.0812 -0.36368,0.48659 -0.36368,0.90096 0,0.91575 0.18428,0.82326 0.49526,-0.24859 z m 14.13796,2.93286 c -0.14255,-0.0936 -0.83058,-0.14493 -1.52895,-0.11405 -1.14783,0.0508 -1.3274,-0.0318 -1.87028,-0.86014 -0.63053,-0.96207 -0.73146,-0.9278 -1.40685,0.47769 -0.1122,0.23334 -0.5414,0.42425 -0.95393,0.42425 h -0.75006 l 0.73846,-0.48486 c 0.5366,-0.35232 0.73847,-0.8081 0.73847,-1.66733 0,-0.76367 0.19932,-1.29108 0.56278,-1.48914 0.68247,-0.37187 1.22858,-0.1046 0.61262,0.29983 -0.24031,0.15778 -0.43693,0.53779 -0.43693,0.84446 0,0.71729 1.28487,0.76136 1.85363,0.0636 1.0191,-1.25025 -0.9518,-2.01774 -3.27032,-1.27351 -1.10974,0.35621 -1.35257,0.56472 -1.35257,1.16145 0,0.55818 0.15026,0.71073 0.64616,0.65605 0.35539,-0.0392 0.64616,0.0499 0.64616,0.19794 0,0.1506 -0.44724,0.23536 -1.01539,0.19244 -0.88034,-0.0665 -1.03057,-0.19693 -1.12953,-0.98068 -0.10075,-0.79866 0.0282,-0.96094 1.1077,-1.39306 3.30357,-1.32244 7.07232,0.17482 4.66864,1.85475 -0.69195,0.48361 -0.74035,0.64381 -0.36004,1.19185 0.3473,0.50047 0.54591,0.57509 0.94779,0.3561 0.27962,-0.15238 0.60976,-0.54216 0.73362,-0.86618 0.25189,-0.65893 1.51246,-1.23395 1.87072,-0.85334 0.12211,0.12978 -0.0339,0.56104 -0.34682,0.95834 -0.69554,0.88311 -0.70328,0.98888 -0.0723,0.98888 0.79308,0 1.86814,-0.93818 1.88652,-1.64632 0.0221,-0.85028 1.30337,-1.09305 1.32092,-0.25029 0.0126,0.57689 0.76757,1.41175 1.2776,1.41175 0.15666,0 0.1957,-0.43638 0.0868,-0.96972 -0.109,-0.53335 -0.0477,-0.96972 0.13592,-0.96972 0.18375,0 0.33411,-0.16365 0.33411,-0.36365 0,-0.20001 0.16615,-0.36364 0.36922,-0.36364 0.20308,0 0.36923,0.15563 0.36923,0.34586 0,0.19023 0.29077,0.39686 0.64616,0.45916 0.54723,0.096 0.51897,0.14012 -0.18461,0.28848 -0.67312,0.14195 -0.83078,0.35385 -0.83078,1.11664 0,1.13676 0.91629,1.30356 1.51178,0.27521 0.59143,-1.02138 1.35624,-1.45917 2.33458,-1.33638 0.7898,0.0991 0.85467,0.20388 0.67397,1.08844 -0.2609,1.2772 0.60589,1.16497 1.17557,-0.15221 0.46209,-1.06843 1.00555,-0.92797 0.71927,0.1859 l -0.19516,0.75928 0.85926,-0.63179 c 0.4726,-0.34748 1.05718,-0.8384 1.29909,-1.09094 0.38265,-0.39946 0.44265,-0.32707 0.46154,0.55687 0.0125,0.55882 0.1697,1.07607 0.35056,1.14947 0.50079,0.20322 1.58542,-1.03663 1.34391,-1.53624 -0.11946,-0.24721 0.0315,-0.5726 0.34532,-0.74354 0.45979,-0.25054 0.60236,-0.2246 0.81128,0.1476 0.13941,0.24835 0.48765,0.54393 0.77389,0.65684 0.32764,0.12922 0.44005,0.41562 0.30342,0.77303 -0.31711,0.82955 0.45671,0.98794 0.91977,0.18826 0.59971,-1.03564 1.36047,-1.4743 2.34303,-1.35097 0.7898,0.0991 0.85466,0.20388 0.67397,1.08844 -0.26424,1.29348 0.65415,1.15742 1.22639,-0.18168 0.24334,-0.56943 0.50622,-0.82282 0.67148,-0.64726 0.14937,0.1587 0.16891,0.39763 0.0434,0.53096 -0.12546,0.13334 -0.0922,0.24244 0.074,0.24244 0.16621,0 0.51637,-0.22517 0.77815,-0.50038 0.26177,-0.27521 0.75787,-0.46472 1.10249,-0.42115 0.48683,0.0616 0.59925,0.28733 0.50411,1.01242 -0.0913,0.69593 0.003,0.90527 0.37095,0.82337 0.31721,-0.0706 0.49339,-0.51328 0.49339,-1.23972 0,-0.62145 0.12462,-1.12974 0.27694,-1.12952 0.15231,2.1e-4 0.27691,-0.16325 0.27691,-0.36325 0,-0.20001 0.16617,-0.36364 0.36924,-0.36364 0.20308,0 0.36923,0.16363 0.36923,0.36364 0,0.2 0.29077,0.36936 0.64616,0.37636 0.54246,0.0106 0.51283,0.0738 -0.18462,0.39321 -0.52802,0.24185 -0.83077,0.62956 -0.83077,1.06392 0,0.81332 0.56086,1.11061 1.31741,0.69835 0.30064,-0.16382 0.64009,-0.23647 0.75434,-0.16145 0.11429,0.075 -0.23061,0.32496 -0.76636,0.55544 -0.70941,0.30519 -1.08462,0.34648 -1.38091,0.15194 -0.25386,-0.16668 -0.63601,-0.18659 -1.01634,-0.053 -0.89501,0.3145 -1.41679,-0.01 -1.55505,-0.96627 l -0.12239,-0.84639 -0.86089,0.90911 c -0.66929,0.7068 -1.09586,0.90912 -1.91669,0.90912 -0.58068,0 -1.16346,-0.11439 -1.29506,-0.2542 -0.15411,-0.1637 -0.3919,-0.17158 -0.66796,-0.0221 -0.23577,0.12764 -1.09328,0.21476 -1.90561,0.19359 -1.35471,-0.0353 -1.47573,-0.0937 -1.46237,-0.70518 0.0191,-0.8745 -0.61562,-0.84764 -1.43277,0.0607 -0.72933,0.81065 -1.84959,0.94975 -2.4404,0.30304 -0.36912,-0.40406 -0.40605,-0.40406 -0.77516,0 -0.43467,0.47579 -3.09118,0.60484 -3.50045,0.17005 -0.16428,-0.17452 -0.3987,-0.16733 -0.74785,0.0229 -0.2797,0.15242 -0.72185,0.227 -0.98252,0.16574 -0.26067,-0.0613 -0.77855,-0.008 -1.15084,0.11762 -0.49198,0.16644 -0.87019,0.11413 -1.38462,-0.19154 -0.67235,-0.39952 -0.74513,-0.39834 -1.45495,0.0235 -0.59487,0.35348 -0.8395,0.38252 -1.2,0.14247 -0.35827,-0.23855 -0.31019,-0.37066 0.23032,-0.6327 0.37572,-0.18216 0.57308,-0.44811 0.43855,-0.59102 -0.14811,-0.15736 -0.72595,0.0753 -1.4652,0.58995 -1.22,0.84933 -1.7051,0.99969 -2.19265,0.67958 z m 9.29313,-0.84802 c 0.54124,-0.35537 0.58619,-1.16367 0.0647,-1.16367 -0.31159,0 -1.09856,0.96647 -1.09856,1.34915 0,0.20758 0.59884,0.10014 1.03385,-0.18548 z m 12.18472,0 c 0.52982,-0.34787 0.5907,-1.16367 0.0868,-1.16367 -0.38834,0 -1.12069,0.7817 -1.12069,1.19621 0,0.34303 0.48509,0.32775 1.03385,-0.0325 z m -20.98378,-1.04246 c 0,-0.13333 -0.16108,-0.0788 -0.35793,0.12122 -0.19687,0.2 -0.35792,0.47274 -0.35792,0.60608 0,0.13333 0.16105,0.0788 0.35792,-0.12122 0.19685,-0.20001 0.35793,-0.47274 0.35793,-0.60608 z m -13.27949,1.45588 c -0.2519,-0.1993 -0.37297,-0.5759 -0.26903,-0.83689 0.10397,-0.26099 -9e-4,-0.51937 -0.23334,-0.57417 -0.23229,-0.0548 -0.3049,-0.18261 -0.16135,-0.28401 0.60927,-0.43035 1.40056,0.12817 1.40056,0.98856 0,0.76613 0.0761,0.84437 0.56278,0.57914 0.6191,-0.33735 1.13046,-0.17863 0.74473,0.23117 -0.35352,0.37555 -1.51283,0.31669 -2.04435,-0.1038 z m -7.75554,-2.78925 c 0,-0.13333 0.24922,-0.24242 0.55386,-0.24242 0.30461,0 0.55384,0.10909 0.55384,0.24242 0,0.13334 -0.24923,0.24243 -0.55384,0.24243 -0.30464,0 -0.55386,-0.10909 -0.55386,-0.24243 z m 16.80014,-2.52971 -2.95386,-0.75927 -0.0987,-6.11329 -0.0987,-6.113298 -2.30138,-0.04893 c -1.26575,-0.02694 -2.84137,-0.03014 -3.50137,-0.0073 -1.23621,0.04297 -1.62688,-0.269256 -0.64616,-0.516348 0.30461,-0.07678 0.55384,-0.293253 0.55384,-0.481117 0,-0.187863 0.24923,-0.477378 0.55386,-0.64337 0.76931,-0.419205 1.79063,0.115936 1.32096,0.692144 -0.29818,0.365822 0.55439,0.398798 10.3099,0.398798 9.7555,0 10.60808,-0.03298 10.30989,-0.398798 -0.46966,-0.576208 0.55167,-1.111349 1.32099,-0.692144 0.30461,0.165992 0.55383,0.455507 0.55383,0.64337 0,0.187864 0.24924,0.40437 0.55386,0.481117 0.98071,0.247092 0.59003,0.559284 -0.64615,0.516348 -0.66002,-0.02291 -2.32156,-0.0197 -3.69235,0.0073 l -2.49234,0.04893 v 6.181988 c 0,3.40009 -0.0717,6.18199 -0.15942,6.18199 -0.0877,0 -1.45846,0.31075 -3.04617,0.69057 l -2.88675,0.69057 z m 2.58465,-4.98564 c 0.7866,-0.5707 1.96584,-0.31738 2.53353,-0.12122 0.63617,0.21982 1.18946,0.48091 1.56329,0.0837 0.10948,-0.21475 0.10132,-0.21408 -0.16283,-0.1069 -1.42171,-0.44625 -1.41619,-0.44507 -0.59627,-0.49872 0.52042,-0.0341 0.518,-0.0443 0.0989,-0.32664 -0.99657,-0.67131 -1.0005,-0.66804 -1.03167,-1.83843 -0.32532,-1.19119 -0.32979,-1.19074 -0.96911,-0.18345 -0.59293,0.93421 -0.5657,0.9419 -1.33436,0.86633 -1.14907,0.11323 -1.14906,0.11334 -1.42397,0.33083 -0.43004,0.34022 -0.42686,0.33632 0.31896,0.83075 0.96549,0.51332 0.96935,0.522 0.23475,1.05897 -1.31632,0.96219 -1.63529,0.14843 -1.98907,-0.39831 -0.33362,-0.51558 -0.33487,-0.52537 -0.35734,-0.0404 -0.0126,0.27779 -0.004,0.2884 0.22275,0.66668 0.51263,0.33657 2.2506,0.14234 2.89233,-0.32323 z m -0.46155,-0.88785 c -0.44799,-0.11869 -0.67213,-1.05159 -0.25267,-1.05159 0.68954,0 1.58042,0.54251 1.39942,0.8522 -0.21927,0.37517 -0.37866,0.40289 -1.14675,0.19939 z m 1.38461,-0.0819 c 0,-0.13334 0.17597,-0.24243 0.39103,-0.24243 0.21507,0 0.29761,-0.0993 0.18343,-0.22055 -0.11415,-0.12131 -0.0902,-0.42132 0.0535,-0.66669 0.22895,-0.39116 0.28842,-0.37145 0.48274,0.15995 0.12657,0.34602 0.0264,0.7361 -0.23355,0.90912 -0.54924,0.36566 -0.87716,0.38831 -0.87716,0.0606 z m -11.26162,-8.242651 c 0.12546,-0.133336 0.0522,-0.242428 -0.16282,-0.242428 -0.21507,0 -0.39103,0.109092 -0.39103,0.242428 0,0.133345 0.0733,0.242437 0.16282,0.242437 0.0896,0 0.26553,-0.109092 0.39103,-0.242437 z m 22.33864,0 c 0,-0.133336 -0.17596,-0.242428 -0.39101,-0.242428 -0.21507,0 -0.28835,0.109092 -0.16283,0.242428 0.12546,0.133345 0.30148,0.242437 0.39103,0.242437 0.0896,0 0.16281,-0.109092 0.16281,-0.242437 z"
       id="path1686"
       sodipodi:nodetypes="cccccccscccccccscccscscssssccscccccccssscsscccsccccsccccsccccscscsscssscscssccsscsccsccscssssccsccsscccsccccscscccsccssccssssssccsscssccccsccsscccsccccccccsccssssssssssscsssccccscccssssscccccccscsscssscccssccccsccsscscscssccccsssscscccccccssscsscss" />
  </g>
</svg>
